<svg width="314" height="143" viewBox="0 0 314 143" fill="none" xmlns="http://www.w3.org/2000/svg">
<path d="M106.324 8.7817C106.324 4.20785 110.032 0.5 114.606 0.5H179.147L192.2 14.2401L206.627 27.9801V133.741C206.627 138.315 202.919 142.023 198.345 142.023H114.606C110.032 142.023 106.324 138.315 106.324 133.741V8.7817Z" fill="#C0381D"/>
<path d="M179.146 0.5L192.887 14.9271L206.627 27.9801H187.428C182.854 27.9801 179.146 24.2723 179.146 19.6984V0.5Z" fill="#9C2F16"/>
<path d="M136.57 66.3201H127.262V90.2745H133.388V83.0882H136.57C141.361 83.0882 145.126 79.6319 145.126 74.7042C145.126 69.7764 141.361 66.3201 136.57 66.3201ZM136.57 77.2707H133.388V72.1718H136.57C137.939 72.1718 139 73.1985 139 74.7042C139 76.2099 137.939 77.2707 136.57 77.2707ZM157.267 66.3201H147.514V90.2745H157.267C163.871 90.2745 168.902 85.073 168.902 78.2973C168.902 71.5217 163.871 66.3201 157.267 66.3201ZM157.267 84.3544H153.811V72.2403H157.267C160.552 72.2403 162.913 74.6357 162.913 78.2973C162.913 81.9589 160.552 84.3544 157.267 84.3544ZM186.457 72.2403V66.3201H171.742V90.2745H177.868V82.0616H186.286V76.1414H177.868V72.2403H186.457Z" fill="white"/>
<g opacity="0.9">
<path d="M268.996 71.2603L225.105 71.2603" stroke="black" stroke-width="4.41475" stroke-linecap="round" stroke-linejoin="round"/>
<path d="M231.109 81.2858C231.971 82.1479 233.369 82.1479 234.231 81.2858C235.093 80.4238 235.093 79.0262 234.231 78.1641L231.109 81.2858ZM224.205 71.2604L222.644 69.6995C221.782 70.5616 221.782 71.9592 222.644 72.8212L224.205 71.2604ZM234.228 64.3593C235.09 63.4973 235.09 62.0997 234.228 61.2376C233.366 60.3756 231.968 60.3756 231.106 61.2376L234.228 64.3593ZM234.231 78.1641L225.766 69.6995L222.644 72.8212L231.109 81.2858L234.231 78.1641ZM225.766 72.8212L234.228 64.3593L231.106 61.2376L222.644 69.6995L225.766 72.8212Z" fill="black"/>
</g>
<g opacity="0.9">
<path d="M43.9551 71.2604L87.846 71.2604" stroke="black" stroke-width="4.41475" stroke-linecap="round" stroke-linejoin="round"/>
<path d="M81.8421 81.2859C80.9801 82.148 79.5824 82.148 78.7204 81.2859C77.8584 80.4239 77.8584 79.0263 78.7204 78.1642L81.8421 81.2859ZM88.7458 71.2605L90.3067 69.6997C91.1687 70.5617 91.1687 71.9593 90.3067 72.8214L88.7458 71.2605ZM78.7231 64.3595C77.861 63.4974 77.861 62.0998 78.7231 61.2378C79.5851 60.3757 80.9827 60.3757 81.8448 61.2378L78.7231 64.3595ZM78.7204 78.1642L87.185 69.6997L90.3067 72.8214L81.8421 81.2859L78.7204 78.1642ZM87.185 72.8214L78.7231 64.3595L81.8448 61.2378L90.3067 69.6997L87.185 72.8214Z" fill="black"/>
</g>
<path opacity="0.6" d="M59.0204 52.7263C59.381 52.7263 59.6129 52.4715 59.6644 52.1402C60.4887 47.5282 60.5402 47.2479 65.4604 46.407C65.7953 46.3561 66.0529 46.1267 66.0529 45.77C66.0529 45.4133 65.7953 45.2094 65.4604 45.1585C60.5145 44.2921 60.4887 44.0373 59.6644 39.4252C59.6129 39.094 59.381 38.8392 59.0204 38.8392C58.6855 38.8392 58.4537 39.094 58.4021 39.4252C57.5778 44.0373 57.5521 44.3176 52.6062 45.1585C52.2713 45.2094 52.0137 45.4133 52.0137 45.77C52.0137 46.1267 52.2713 46.3561 52.6062 46.407C57.5521 47.2734 57.5521 47.5282 58.4021 52.1402C58.4537 52.4715 58.6855 52.7263 59.0204 52.7263Z" fill="black"/>
<path opacity="0.6" d="M50.1746 80.7315C49.8577 80.7315 49.654 80.9527 49.6087 81.2401C48.8843 85.2426 48.839 85.4858 44.5152 86.2156C44.2209 86.2598 43.9946 86.4588 43.9946 86.7684C43.9946 87.078 44.2209 87.2549 44.5152 87.2991C48.8616 88.051 48.8843 88.2721 49.6087 92.2745C49.654 92.562 49.8577 92.7831 50.1746 92.7831C50.4689 92.7831 50.6726 92.562 50.7179 92.2745C51.4423 88.2721 51.465 88.0288 55.8114 87.2991C56.1057 87.2549 56.332 87.078 56.332 86.7684C56.332 86.4588 56.1057 86.2598 55.8114 86.2156C51.465 85.4637 51.465 85.2426 50.7179 81.2401C50.6726 80.9527 50.4689 80.7315 50.1746 80.7315Z" fill="black"/>
<path opacity="0.6" d="M19.77 83.6812C19.8153 83.3716 19.9964 83.1726 20.3133 83.1726C20.6302 83.1726 20.834 83.3716 20.8792 83.6591L20.8902 83.7197C21.604 87.664 21.6482 87.9085 25.95 88.6345C26.267 88.6787 26.4707 88.8778 26.4707 89.1873C26.4707 89.4969 26.267 89.6959 25.95 89.7402C21.6482 90.4442 21.604 90.6886 20.8902 94.6329L20.8792 94.6935C20.834 94.981 20.6302 95.2021 20.3133 95.2021C19.9964 95.2021 19.8153 94.981 19.77 94.6935C19.0456 90.7131 19.0003 90.4699 14.6765 89.7402C14.3596 89.6738 14.1559 89.4969 14.1559 89.1873C14.1559 88.8778 14.3596 88.6787 14.6765 88.6345C19.0003 87.9048 19.0003 87.6615 19.77 83.6812Z" fill="black"/>
<path opacity="0.6" d="M37.9519 94.6629C37.9972 94.3975 38.133 94.2427 38.4047 94.2427C38.6763 94.2427 38.8348 94.3975 38.8801 94.6408C39.5818 98.0241 39.5366 98.1346 43.1812 98.8644C43.4529 98.9086 43.6113 99.0634 43.6113 99.3287C43.6113 99.572 43.4302 99.7268 43.1812 99.771C39.5366 100.479 39.6045 100.589 38.8801 103.995C38.8348 104.238 38.6763 104.415 38.4047 104.415C38.133 104.415 37.9972 104.238 37.9519 103.995C37.2275 100.611 37.2728 100.501 33.6282 99.771C33.3792 99.7268 33.1981 99.572 33.1981 99.3287C33.1981 99.0634 33.3792 98.9086 33.6282 98.8644C37.2728 98.1567 37.2275 98.0462 37.9519 94.6629Z" fill="black"/>
<path opacity="0.6" d="M34.7837 51.2688C34.8112 50.9934 34.99 50.8143 35.2375 50.8143C35.4851 50.8143 35.6639 50.9934 35.7052 51.2413C36.159 54.7256 36.2828 54.7256 39.8999 55.4142C40.1337 55.4693 40.3125 55.6345 40.3125 55.8824C40.3125 56.1303 40.1337 56.3094 39.8861 56.3507C36.2828 56.8465 36.1453 56.9704 35.7052 60.5098C35.6639 60.7715 35.4851 60.9505 35.2375 60.9505C34.99 60.9505 34.8112 60.7715 34.7837 60.496C34.3573 57.0117 34.1648 57.0255 30.5889 56.3507C30.3414 56.2956 30.1763 56.1303 30.1763 55.8824C30.1763 55.6208 30.3414 55.4693 30.644 55.4142C34.1923 54.8495 34.3573 54.7531 34.7837 51.2688Z" fill="black"/>
<path opacity="0.6" d="M5.20556 56.3375C5.23307 56.0621 5.41186 55.8831 5.65942 55.8831C5.90698 55.8831 6.08577 56.0621 6.12703 56.31C6.58089 59.7943 6.70467 59.7943 10.3218 60.4829C10.5556 60.538 10.7344 60.7033 10.7344 60.9511C10.7344 61.199 10.5556 61.3781 10.308 61.4194C6.70467 61.9152 6.56714 62.0391 6.12703 65.5785C6.08577 65.8402 5.90698 66.0192 5.65942 66.0192C5.41186 66.0192 5.23307 65.8402 5.20556 65.5648C4.77921 62.0804 4.58667 62.0942 1.01082 61.4194C0.76326 61.3643 0.59822 61.199 0.59822 60.9511C0.59822 60.6895 0.763259 60.538 1.06583 60.4829C4.61417 59.9183 4.77921 59.8218 5.20556 56.3375Z" fill="black"/>
<path opacity="0.6" d="M254.98 52.7264C254.619 52.7264 254.387 52.4715 254.336 52.1403C253.511 47.5282 253.46 47.248 248.54 46.4071C248.205 46.3561 247.947 46.1268 247.947 45.7701C247.947 45.4133 248.205 45.2095 248.54 45.1585C253.486 44.2922 253.511 44.0373 254.336 39.4253C254.387 39.094 254.619 38.8392 254.98 38.8392C255.314 38.8392 255.546 39.094 255.598 39.4253C256.422 44.0373 256.448 44.3176 261.394 45.1585C261.729 45.2095 261.986 45.4133 261.986 45.7701C261.986 46.1268 261.729 46.3561 261.394 46.4071C256.448 47.2734 256.448 47.5282 255.598 52.1403C255.546 52.4715 255.314 52.7264 254.98 52.7264Z" fill="black"/>
<path opacity="0.6" d="M263.825 80.7316C264.142 80.7316 264.346 80.9527 264.391 81.2402C265.116 85.2427 265.161 85.4859 269.485 86.2156C269.779 86.2599 270.005 86.4589 270.005 86.7685C270.005 87.078 269.779 87.2549 269.485 87.2992C265.138 88.051 265.116 88.2721 264.391 92.2746C264.346 92.5621 264.142 92.7832 263.825 92.7832C263.531 92.7832 263.327 92.5621 263.282 92.2746C262.558 88.2721 262.535 88.0289 258.189 87.2992C257.894 87.2549 257.668 87.078 257.668 86.7685C257.668 86.4589 257.894 86.2599 258.189 86.2156C262.535 85.4638 262.535 85.2427 263.282 81.2402C263.327 80.9527 263.531 80.7316 263.825 80.7316Z" fill="black"/>
<path opacity="0.6" d="M294.23 83.6813C294.185 83.3717 294.004 83.1727 293.687 83.1727C293.37 83.1727 293.166 83.3717 293.121 83.6591L293.11 83.7198C292.396 87.6641 292.352 87.9086 288.05 88.6346C287.733 88.6788 287.529 88.8778 287.529 89.1874C287.529 89.497 287.733 89.696 288.05 89.7402C292.352 90.4443 292.396 90.6886 293.11 94.633L293.121 94.6935C293.166 94.981 293.37 95.2021 293.687 95.2021C294.004 95.2021 294.185 94.981 294.23 94.6935C294.954 90.7132 295 90.47 299.323 89.7402C299.64 89.6739 299.844 89.497 299.844 89.1874C299.844 88.8778 299.64 88.6788 299.323 88.6346C295 87.9049 295 87.6616 294.23 83.6813Z" fill="black"/>
<path opacity="0.6" d="M276.048 94.6629C276.003 94.3976 275.867 94.2428 275.595 94.2428C275.324 94.2428 275.165 94.3976 275.12 94.6408C274.418 98.0241 274.463 98.1347 270.819 98.8644C270.547 98.9086 270.389 99.0634 270.389 99.3288C270.389 99.572 270.57 99.7268 270.819 99.7711C274.463 100.479 274.396 100.589 275.12 103.995C275.165 104.238 275.324 104.415 275.595 104.415C275.867 104.415 276.003 104.238 276.048 103.995C276.772 100.611 276.727 100.501 280.372 99.7711C280.621 99.7268 280.802 99.572 280.802 99.3288C280.802 99.0634 280.621 98.9087 280.372 98.8644C276.727 98.1568 276.772 98.0462 276.048 94.6629Z" fill="black"/>
<path opacity="0.6" d="M279.216 51.2689C279.189 50.9934 279.01 50.8144 278.762 50.8144C278.515 50.8144 278.336 50.9934 278.295 51.2413C277.841 54.7256 277.717 54.7256 274.1 55.4142C273.866 55.4693 273.688 55.6346 273.688 55.8825C273.688 56.1304 273.866 56.3094 274.114 56.3507C277.717 56.8465 277.855 56.9705 278.295 60.5099C278.336 60.7715 278.515 60.9506 278.762 60.9506C279.01 60.9506 279.189 60.7715 279.216 60.4961C279.643 57.0118 279.835 57.0256 283.411 56.3507C283.659 56.2956 283.824 56.1304 283.824 55.8825C283.824 55.6208 283.659 55.4693 283.356 55.4142C279.808 54.8496 279.643 54.7532 279.216 51.2689Z" fill="black"/>
<path opacity="0.6" d="M308.794 56.3376C308.767 56.0622 308.588 55.8831 308.341 55.8831C308.093 55.8831 307.914 56.0622 307.873 56.3101C307.419 59.7944 307.295 59.7944 303.678 60.483C303.444 60.538 303.266 60.7033 303.266 60.9512C303.266 61.1991 303.444 61.3781 303.692 61.4195C307.295 61.9152 307.433 62.0392 307.873 65.5786C307.914 65.8403 308.093 66.0193 308.341 66.0193C308.588 66.0193 308.767 65.8403 308.794 65.5648C309.221 62.0805 309.413 62.0943 312.989 61.4195C313.237 61.3644 313.402 61.1991 313.402 60.9512C313.402 60.6895 313.237 60.5381 312.934 60.483C309.386 59.9183 309.221 59.8219 308.794 56.3376Z" fill="black"/>
</svg>
